<svg id="Capa_1" data-name="Capa 1" xmlns="http://www.w3.org/2000/svg" width="2021" height="879" viewBox="0 0 2021 879">
  <title>Falabella_logo_2007_con_fondo</title>
  <g>
    <rect width="2021" height="879" style="fill: #c2d100"/>
    <g>
      <path d="M707.74,693.88c8.1-36.4,15.8-68.4,43.5-95.6,19-18.5,44-29.3,70.6-29.3a128.57,128.57,0,0,1,16.8,1.1l-2.2,13.6s-14.1-2.2-22.8,0c-11.4,2.7-17.9,7.6-26.1,15.2-14.7,14.7-19.6,31.5-28.8,71.2L729.44,802h73.29l-4.28,17H725.56L679.1,1024.41c-8.19,36.57-15.89,68.84-43.66,96.11-19.08,18.58-44.26,29.47-71.54,29.47h-9.19l4.9-15.29a42.47,42.47,0,0,0,8.19-.5c14.79-2.2,24.58-7.09,32.87-18.08,13.69-17.48,17-28.47,26.78-67.84L678.9,819H606.71l4.36-22h71.67Z" transform="translate(-392 -420)" style="fill: #fff"/>
      <path d="M1707,884H1599.74c7.1-26.6,28.8-69,67.4-69,41.8-.5,42.9,41.8,36.9,69m-33.2-91c-54.9,0-103.8,36.9-115.2,95.1-19.6,98.9,53.8,117.3,84.7,117.3a101.46,101.46,0,0,0,63-21.2l-14.1-16.3c-11.4,7.1-23.9,12-38.6,12-51.1,0-58.1-43.5-55.4-73.9H1742c15.2-48.9-1.1-113-71.2-113" transform="translate(-392 -420)" style="fill: #fff"/>
      <path d="M1071.14,646c0-.42-61.4,263.58-66.8,295.08-8.1,48.9,17.4,56,31,58.1,25,3.8,41.3-.5,41.3-.5l2.7-16.3a42.83,42.83,0,0,1-20.6,1.1c-15.8-2.7-17.9-12-14.1-38.6,4.9-31,69.5-299.9,69.5-299.88H1071v1Z" transform="translate(-392 -420)" style="fill: #fff"/>
      <path d="M1831.64,646c0-.42-61.4,263.58-66.8,295.08-8.1,48.9,17.4,56,31,58.1,25,3.8,41.3-.5,41.3-.5l2.7-16.3a42.83,42.83,0,0,1-20.6,1.1c-15.8-2.7-17.9-12-14.1-38.6,4.9-31,69.5-299.9,69.5-299.88H1832v1Z" transform="translate(-392 -420)" style="fill: #fff"/>
      <path d="M1924,645.6s-61.4,264-66.8,295.5c-8.1,48.9,16.8,56,31,58.1,25,3.8,41.3-.5,41.3-.5l2.7-16.3a42.83,42.83,0,0,1-20.6,1.1c-15.8-2.7-17.9-12-14.1-38.6,4.9-31,69.5-299.9,69.5-299.9h-43Z" transform="translate(-392 -420)" style="fill: #fff"/>
      <path d="M923.34,913.88c-4.9,16.3-24.4,73.9-70.6,73.9-54.9,0-28.2-83.1-23.9-99.4,4.3-15.8,24.4-74.4,69-74.4,53.8,0,30.4,83.6,25.5,99.9M948,797l-5.17,22h-1.61c-10.88-20.57-30.95-26.56-51.51-26.56-62.4,0-98.14,51.51-108.42,100.83-15.17,70.48,6.49,111.21,65.09,111.21,25.46,0,45-6.49,70-29.25L927.21,998h20.62l43.7-201Z" transform="translate(-392 -420)" style="fill: #fff"/>
      <path d="M1252.54,913.88c-4.9,16.3-24.4,73.9-70.6,73.9-54.9,0-28.2-83.1-23.9-99.4,4.3-15.8,24.4-75,68.4-75,54.4.6,31,84.2,26.1,100.5M1277.17,797,1272,819h-1.11c-10.88-20.57-30.95-26.56-51.51-26.56-62.4,0-98.14,51.51-108.42,100.83-15.17,70.48,6.49,111.21,65.09,111.21,25.46,0,45-6.49,70-29.25L1256.91,998h20.62l43.7-201Z" transform="translate(-392 -420)" style="fill: #fff"/>
      <path d="M2102.74,913.88c-4.9,16.3-24.4,73.9-70.6,73.9-54.9,0-28.2-83.1-23.9-99.4,4.3-15.8,23.9-75,68.4-75,54.4.6,31,84.2,26.1,100.5M2127.37,797l-5.17,22h-1.11c-11.38-20.57-30.95-26.56-51.51-26.56-62.4,0-97.64,51.51-108.42,100.83-15.17,70.48,6.49,111.21,65.09,111.21,25.46,0,45-6.49,70-29.25L2107.11,998h20.62l43.7-201Z" transform="translate(-392 -420)" style="fill: #fff"/>
      <path d="M1480.24,916.08c-4.3,16.3-23.9,73.9-65.2,73.9-49.4,0-33.1-83.1-28.8-99.4,6.5-26.1,21.2-73.3,61.9-73.3,55.4-.1,36.4,82,32.1,98.8m-79-92.08h-.86l39.52-173h-45.32s-63.18,273.12-80.38,353h24.9l20.68-22.89c15.26,22.89,31.62,29.41,57.82,29.41,58.93,0,97.58-40.86,112.94-111.83,10.94-50.2-3.31-102-66-102C1464.53,796.69,1420,797,1401.28,824Z" transform="translate(-392 -420)" style="fill: #fff"/>
      <path d="M2195.14,969.88a27.7,27.7,0,1,1,27.7,27.7c-15.8,0-27.7-12-27.7-27.7" transform="translate(-392 -420)" style="fill: #fff"/>
    </g>
  </g>
</svg>
