<svg id="Capa_1" data-name="Capa 1" xmlns="http://www.w3.org/2000/svg" viewBox="0 0 1417.32 1417.32"><defs><style>.cls-1{opacity:0.61;}.cls-2{fill:#a735e0;}.cls-3{font-size:217.51px;stroke:#000;stroke-miterlimit:10;font-family:DazzleUnicase-Medium, Dazzle Unicase;font-weight:500;}.cls-4{letter-spacing:0.01em;}.cls-5{letter-spacing:0.01em;}.cls-6{letter-spacing:-0.05em;}.cls-7{letter-spacing:-0.01em;}.cls-8{font-size:75px;font-family:Elevon-TwoG, Elevon;font-weight:400;}.cls-9{letter-spacing:-0.01em;}.cls-10{letter-spacing:-0.01em;}</style></defs><g class="cls-1"><rect class="cls-2" x="190.51" y="680.89" width="26.43" height="71.59"/><rect class="cls-2" x="237.11" y="637.42" width="27.82" height="150.85"/><rect class="cls-2" x="292.75" y="551.77" width="25.04" height="334.95"/><rect class="cls-2" x="341.44" y="550.29" width="25.04" height="316.75"/><rect class="cls-2" x="391.51" y="499.35" width="30.6" height="430.83"/><rect class="cls-2" x="438.81" y="524.95" width="25.04" height="308.07"/><rect class="cls-2" x="480.54" y="416.25" width="29.21" height="595.74"/><rect class="cls-2" x="523.66" y="355.93" width="29.21" height="705.47"/><rect class="cls-2" x="579.3" y="443.1" width="26.43" height="539.49"/><rect class="cls-2" x="627.98" y="550.29" width="25.04" height="282.73"/><rect class="cls-2" x="673.88" y="443.1" width="29.21" height="478.99"/><rect class="cls-2" x="726.74" y="538.98" width="26.43" height="347.73"/><rect class="cls-2" x="775.43" y="443.1" width="26.43" height="539.49"/><rect class="cls-2" x="824.11" y="522.36" width="27.82" height="383.53"/><rect class="cls-2" x="882.53" y="489.12" width="27.82" height="451.28"/><rect class="cls-2" x="927.05" y="522.36" width="27.82" height="383.53"/><rect class="cls-2" x="978.51" y="390.89" width="27.82" height="629.37"/><rect class="cls-2" x="1016.76" y="473.78" width="26.43" height="490.91"/><rect class="cls-2" x="1066.15" y="554.32" width="25.04" height="314.49"/><rect class="cls-2" x="1113.44" y="600.35" width="25.04" height="222.44"/><rect class="cls-2" x="1159.34" y="637.42" width="22.26" height="150.85"/><rect class="cls-2" x="1204.55" y="671.3" width="22.26" height="90.77"/></g><text class="cls-3" transform="translate(218.84 753.38)"><tspan class="cls-4">E<tspan class="cls-5" x="121.15" y="0">s</tspan><tspan class="cls-6" x="216.63" y="0">t</tspan><tspan x="318.42" y="0">e</tspan><tspan class="cls-7" x="519.61" y="0">b</tspan><tspan x="652.73" y="0">an</tspan></tspan><tspan class="cls-8"><tspan x="102.6" y="90">El poder de la </tspan><tspan class="cls-9" x="729.06" y="90">v</tspan><tspan class="cls-10" x="776.01" y="90">o</tspan><tspan x="826.94" y="90">z</tspan></tspan></text></svg>